# https://github.com/mikedh/trimesh
v 0.00000000 0.00000000 -0.04600000
v 0.02700000 0.00000000 -0.04600000
v 0.03800000 0.00000000 0.04200000
v 0.04020000 0.00000000 0.04200000
v 0.04020000 0.00000000 0.04600000
v 0.03640000 0.00000000 0.04600000
v 0.02540000 0.00000000 -0.04350000
v 0.00000000 0.00000000 -0.04350000
v 0.02694219 0.00176588 -0.04600000
v 0.03791864 0.00248532 0.04200000
v 0.04011393 0.00262921 0.04200000
v 0.04011393 0.00262921 0.04600000
v 0.03632206 0.00238067 0.04600000
v 0.02534562 0.00166124 -0.04350000
v 0.02676901 0.00352421 -0.04600000
v 0.03767490 0.00496000 0.04200000
v 0.03985608 0.00524715 0.04200000
v 0.03985608 0.00524715 0.04600000
v 0.03608859 0.00475115 0.04600000
v 0.02518270 0.00331537 -0.04350000
v 0.02648120 0.00526744 -0.04600000
v 0.03726984 0.00741343 0.04200000
v 0.03942757 0.00784263 0.04200000
v 0.03942757 0.00784263 0.04600000
v 0.03570058 0.00710129 0.04600000
v 0.02491195 0.00495529 -0.04350000
v 0.02608000 0.00698811 -0.04600000
v 0.03670518 0.00983512 0.04200000
v 0.03883022 0.01040453 0.04200000
v 0.03883022 0.01040453 0.04600000
v 0.03515970 0.00942101 0.04600000
v 0.02453452 0.00657400 -0.04350000
v 0.02556711 0.00867887 -0.04600000
v 0.03598334 0.01221470 0.04200000
v 0.03806659 0.01292187 0.04200000
v 0.03806659 0.01292187 0.04600000
v 0.03446826 0.01170040 0.04600000
v 0.02405203 0.00816456 -0.04350000
v 0.02494475 0.01033245 -0.04600000
v 0.03510742 0.01454197 0.04200000
v 0.03713996 0.01538387 0.04200000
v 0.03713996 0.01538387 0.04600000
v 0.03362921 0.01392968 0.04600000
v 0.02346654 0.00972016 -0.04350000
v 0.02421556 0.01194179 -0.04600000
v 0.03408116 0.01680697 0.04200000
v 0.03605428 0.01778001 0.04200000
v 0.03605428 0.01778001 0.04600000
v 0.03264617 0.01609931 0.04600000
v 0.02278057 0.01123413 -0.04350000
v 0.02338269 0.01350000 -0.04600000
v 0.03290897 0.01900000 0.04200000
v 0.03481422 0.02010000 0.04200000
v 0.03481422 0.02010000 0.04600000
v 0.03152332 0.01820000 0.04600000
v 0.02199705 0.01270000 -0.04350000
v 0.02244968 0.01500040 -0.04600000
v 0.03159585 0.02111167 0.04200000
v 0.03342508 0.02233392 0.04200000
v 0.03342508 0.02233392 0.04600000
v 0.03026549 0.02022276 0.04600000
v 0.02111933 0.01411148 -0.04350000
v 0.02142054 0.01643656 -0.04600000
v 0.03014743 0.02313293 0.04200000
v 0.03189280 0.02447221 0.04200000
v 0.03189280 0.02447221 0.04600000
v 0.02887806 0.02215892 0.04600000
v 0.02015117 0.01546254 -0.04350000
v 0.02029967 0.01780234 -0.04600000
v 0.02856991 0.02505514 0.04200000
v 0.03022396 0.02650570 0.04200000
v 0.03022396 0.02650570 0.04600000
v 0.02736697 0.02400019 0.04600000
v 0.01909673 0.01674738 -0.04350000
v 0.01909188 0.01909188 -0.04600000
v 0.02687006 0.02687006 0.04200000
v 0.02842569 0.02842569 0.04200000
v 0.02842569 0.02842569 0.04600000
v 0.02573869 0.02573869 0.04600000
v 0.01796051 0.01796051 -0.04350000
v 0.01780234 0.02029967 -0.04600000
v 0.02505514 0.02856991 0.04200000
v 0.02650570 0.03022396 0.04200000
v 0.02650570 0.03022396 0.04600000
v 0.02400019 0.02736697 0.04600000
v 0.01674738 0.01909673 -0.04350000
v 0.01643656 0.02142054 -0.04600000
v 0.02313293 0.03014743 0.04200000
v 0.02447221 0.03189280 0.04200000
v 0.02447221 0.03189280 0.04600000
v 0.02215892 0.02887806 0.04600000
v 0.01546254 0.02015117 -0.04350000
v 0.01500040 0.02244968 -0.04600000
v 0.02111167 0.03159585 0.04200000
v 0.02233392 0.03342508 0.04200000
v 0.02233392 0.03342508 0.04600000
v 0.02022276 0.03026549 0.04600000
v 0.01411148 0.02111933 -0.04350000
v 0.01350000 0.02338269 -0.04600000
v 0.01900000 0.03290897 0.04200000
v 0.02010000 0.03481422 0.04200000
v 0.02010000 0.03481422 0.04600000
v 0.01820000 0.03152332 0.04600000
v 0.01270000 0.02199705 -0.04350000
v 0.01194179 0.02421556 -0.04600000
v 0.01680697 0.03408116 0.04200000
v 0.01778001 0.03605428 0.04200000
v 0.01778001 0.03605428 0.04600000
v 0.01609931 0.03264617 0.04600000
v 0.01123413 0.02278057 -0.04350000
v 0.01033245 0.02494475 -0.04600000
v 0.01454197 0.03510742 0.04200000
v 0.01538387 0.03713996 0.04200000
v 0.01538387 0.03713996 0.04600000
v 0.01392968 0.03362921 0.04600000
v 0.00972016 0.02346654 -0.04350000
v 0.00867887 0.02556711 -0.04600000
v 0.01221470 0.03598334 0.04200000
v 0.01292187 0.03806659 0.04200000
v 0.01292187 0.03806659 0.04600000
v 0.01170040 0.03446826 0.04600000
v 0.00816456 0.02405203 -0.04350000
v 0.00698811 0.02608000 -0.04600000
v 0.00983512 0.03670518 0.04200000
v 0.01040453 0.03883022 0.04200000
v 0.01040453 0.03883022 0.04600000
v 0.00942101 0.03515970 0.04600000
v 0.00657400 0.02453452 -0.04350000
v 0.00526744 0.02648120 -0.04600000
v 0.00741343 0.03726984 0.04200000
v 0.00784263 0.03942757 0.04200000
v 0.00784263 0.03942757 0.04600000
v 0.00710129 0.03570058 0.04600000
v 0.00495529 0.02491195 -0.04350000
v 0.00352421 0.02676901 -0.04600000
v 0.00496000 0.03767490 0.04200000
v 0.00524715 0.03985608 0.04200000
v 0.00524715 0.03985608 0.04600000
v 0.00475115 0.03608859 0.04600000
v 0.00331537 0.02518270 -0.04350000
v 0.00176588 0.02694219 -0.04600000
v 0.00248532 0.03791864 0.04200000
v 0.00262921 0.04011393 0.04200000
v 0.00262921 0.04011393 0.04600000
v 0.00238067 0.03632206 0.04600000
v 0.00166124 0.02534562 -0.04350000
v 0.00000000 0.02700000 -0.04600000
v 0.00000000 0.03800000 0.04200000
v 0.00000000 0.04020000 0.04200000
v 0.00000000 0.04020000 0.04600000
v 0.00000000 0.03640000 0.04600000
v 0.00000000 0.02540000 -0.04350000
v -0.00176588 0.02694219 -0.04600000
v -0.00248532 0.03791864 0.04200000
v -0.00262921 0.04011393 0.04200000
v -0.00262921 0.04011393 0.04600000
v -0.00238067 0.03632206 0.04600000
v -0.00166124 0.02534562 -0.04350000
v -0.00352421 0.02676901 -0.04600000
v -0.00496000 0.03767490 0.04200000
v -0.00524715 0.03985608 0.04200000
v -0.00524715 0.03985608 0.04600000
v -0.00475115 0.03608859 0.04600000
v -0.00331537 0.02518270 -0.04350000
v -0.00526744 0.02648120 -0.04600000
v -0.00741343 0.03726984 0.04200000
v -0.00784263 0.03942757 0.04200000
v -0.00784263 0.03942757 0.04600000
v -0.00710129 0.03570058 0.04600000
v -0.00495529 0.02491195 -0.04350000
v -0.00698811 0.02608000 -0.04600000
v -0.00983512 0.03670518 0.04200000
v -0.01040453 0.03883022 0.04200000
v -0.01040453 0.03883022 0.04600000
v -0.00942101 0.03515970 0.04600000
v -0.00657400 0.02453452 -0.04350000
v -0.00867887 0.02556711 -0.04600000
v -0.01221470 0.03598334 0.04200000
v -0.01292187 0.03806659 0.04200000
v -0.01292187 0.03806659 0.04600000
v -0.01170040 0.03446826 0.04600000
v -0.00816456 0.02405203 -0.04350000
v -0.01033245 0.02494475 -0.04600000
v -0.01454197 0.03510742 0.04200000
v -0.01538387 0.03713996 0.04200000
v -0.01538387 0.03713996 0.04600000
v -0.01392968 0.03362921 0.04600000
v -0.00972016 0.02346654 -0.04350000
v -0.01194179 0.02421556 -0.04600000
v -0.01680697 0.03408116 0.04200000
v -0.01778001 0.03605428 0.04200000
v -0.01778001 0.03605428 0.04600000
v -0.01609931 0.03264617 0.04600000
v -0.01123413 0.02278057 -0.04350000
v -0.01350000 0.02338269 -0.04600000
v -0.01900000 0.03290897 0.04200000
v -0.02010000 0.03481422 0.04200000
v -0.02010000 0.03481422 0.04600000
v -0.01820000 0.03152332 0.04600000
v -0.01270000 0.02199705 -0.04350000
v -0.01500040 0.02244968 -0.04600000
v -0.02111167 0.03159585 0.04200000
v -0.02233392 0.03342508 0.04200000
v -0.02233392 0.03342508 0.04600000
v -0.02022276 0.03026549 0.04600000
v -0.01411148 0.02111933 -0.04350000
v -0.01643656 0.02142054 -0.04600000
v -0.02313293 0.03014743 0.04200000
v -0.02447221 0.03189280 0.04200000
v -0.02447221 0.03189280 0.04600000
v -0.02215892 0.02887806 0.04600000
v -0.01546254 0.02015117 -0.04350000
v -0.01780234 0.02029967 -0.04600000
v -0.02505514 0.02856991 0.04200000
v -0.02650570 0.03022396 0.04200000
v -0.02650570 0.03022396 0.04600000
v -0.02400019 0.02736697 0.04600000
v -0.01674738 0.01909673 -0.04350000
v -0.01909188 0.01909188 -0.04600000
v -0.02687006 0.02687006 0.04200000
v -0.02842569 0.02842569 0.04200000
v -0.02842569 0.02842569 0.04600000
v -0.02573869 0.02573869 0.04600000
v -0.01796051 0.01796051 -0.04350000
v -0.02029967 0.01780234 -0.04600000
v -0.02856991 0.02505514 0.04200000
v -0.03022396 0.02650570 0.04200000
v -0.03022396 0.02650570 0.04600000
v -0.02736697 0.02400019 0.04600000
v -0.01909673 0.01674738 -0.04350000
v -0.02142054 0.01643656 -0.04600000
v -0.03014743 0.02313293 0.04200000
v -0.03189280 0.02447221 0.04200000
v -0.03189280 0.02447221 0.04600000
v -0.02887806 0.02215892 0.04600000
v -0.02015117 0.01546254 -0.04350000
v -0.02244968 0.01500040 -0.04600000
v -0.03159585 0.02111167 0.04200000
v -0.03342508 0.02233392 0.04200000
v -0.03342508 0.02233392 0.04600000
v -0.03026549 0.02022276 0.04600000
v -0.02111933 0.01411148 -0.04350000
v -0.02338269 0.01350000 -0.04600000
v -0.03290897 0.01900000 0.04200000
v -0.03481422 0.02010000 0.04200000
v -0.03481422 0.02010000 0.04600000
v -0.03152332 0.01820000 0.04600000
v -0.02199705 0.01270000 -0.04350000
v -0.02421556 0.01194179 -0.04600000
v -0.03408116 0.01680697 0.04200000
v -0.03605428 0.01778001 0.04200000
v -0.03605428 0.01778001 0.04600000
v -0.03264617 0.01609931 0.04600000
v -0.02278057 0.01123413 -0.04350000
v -0.02494475 0.01033245 -0.04600000
v -0.03510742 0.01454197 0.04200000
v -0.03713996 0.01538387 0.04200000
v -0.03713996 0.01538387 0.04600000
v -0.03362921 0.01392968 0.04600000
v -0.02346654 0.00972016 -0.04350000
v -0.02556711 0.00867887 -0.04600000
v -0.03598334 0.01221470 0.04200000
v -0.03806659 0.01292187 0.04200000
v -0.03806659 0.01292187 0.04600000
v -0.03446826 0.01170040 0.04600000
v -0.02405203 0.00816456 -0.04350000
v -0.02608000 0.00698811 -0.04600000
v -0.03670518 0.00983512 0.04200000
v -0.03883022 0.01040453 0.04200000
v -0.03883022 0.01040453 0.04600000
v -0.03515970 0.00942101 0.04600000
v -0.02453452 0.00657400 -0.04350000
v -0.02648120 0.00526744 -0.04600000
v -0.03726984 0.00741343 0.04200000
v -0.03942757 0.00784263 0.04200000
v -0.03942757 0.00784263 0.04600000
v -0.03570058 0.00710129 0.04600000
v -0.02491195 0.00495529 -0.04350000
v -0.02676901 0.00352421 -0.04600000
v -0.03767490 0.00496000 0.04200000
v -0.03985608 0.00524715 0.04200000
v -0.03985608 0.00524715 0.04600000
v -0.03608859 0.00475115 0.04600000
v -0.02518270 0.00331537 -0.04350000
v -0.02694219 0.00176588 -0.04600000
v -0.03791864 0.00248532 0.04200000
v -0.04011393 0.00262921 0.04200000
v -0.04011393 0.00262921 0.04600000
v -0.03632206 0.00238067 0.04600000
v -0.02534562 0.00166124 -0.04350000
v -0.02700000 0.00000000 -0.04600000
v -0.03800000 0.00000000 0.04200000
v -0.04020000 0.00000000 0.04200000
v -0.04020000 0.00000000 0.04600000
v -0.03640000 0.00000000 0.04600000
v -0.02540000 0.00000000 -0.04350000
v -0.02694219 -0.00176588 -0.04600000
v -0.03791864 -0.00248532 0.04200000
v -0.04011393 -0.00262921 0.04200000
v -0.04011393 -0.00262921 0.04600000
v -0.03632206 -0.00238067 0.04600000
v -0.02534562 -0.00166124 -0.04350000
v -0.02676901 -0.00352421 -0.04600000
v -0.03767490 -0.00496000 0.04200000
v -0.03985608 -0.00524715 0.04200000
v -0.03985608 -0.00524715 0.04600000
v -0.03608859 -0.00475115 0.04600000
v -0.02518270 -0.00331537 -0.04350000
v -0.02648120 -0.00526744 -0.04600000
v -0.03726984 -0.00741343 0.04200000
v -0.03942757 -0.00784263 0.04200000
v -0.03942757 -0.00784263 0.04600000
v -0.03570058 -0.00710129 0.04600000
v -0.02491195 -0.00495529 -0.04350000
v -0.02608000 -0.00698811 -0.04600000
v -0.03670518 -0.00983512 0.04200000
v -0.03883022 -0.01040453 0.04200000
v -0.03883022 -0.01040453 0.04600000
v -0.03515970 -0.00942101 0.04600000
v -0.02453452 -0.00657400 -0.04350000
v -0.02556711 -0.00867887 -0.04600000
v -0.03598334 -0.01221470 0.04200000
v -0.03806659 -0.01292187 0.04200000
v -0.03806659 -0.01292187 0.04600000
v -0.03446826 -0.01170040 0.04600000
v -0.02405203 -0.00816456 -0.04350000
v -0.02494475 -0.01033245 -0.04600000
v -0.03510742 -0.01454197 0.04200000
v -0.03713996 -0.01538387 0.04200000
v -0.03713996 -0.01538387 0.04600000
v -0.03362921 -0.01392968 0.04600000
v -0.02346654 -0.00972016 -0.04350000
v -0.02421556 -0.01194179 -0.04600000
v -0.03408116 -0.01680697 0.04200000
v -0.03605428 -0.01778001 0.04200000
v -0.03605428 -0.01778001 0.04600000
v -0.03264617 -0.01609931 0.04600000
v -0.02278057 -0.01123413 -0.04350000
v -0.02338269 -0.01350000 -0.04600000
v -0.03290897 -0.01900000 0.04200000
v -0.03481422 -0.02010000 0.04200000
v -0.03481422 -0.02010000 0.04600000
v -0.03152332 -0.01820000 0.04600000
v -0.02199705 -0.01270000 -0.04350000
v -0.02244968 -0.01500040 -0.04600000
v -0.03159585 -0.02111167 0.04200000
v -0.03342508 -0.02233392 0.04200000
v -0.03342508 -0.02233392 0.04600000
v -0.03026549 -0.02022276 0.04600000
v -0.02111933 -0.01411148 -0.04350000
v -0.02142054 -0.01643656 -0.04600000
v -0.03014743 -0.02313293 0.04200000
v -0.03189280 -0.02447221 0.04200000
v -0.03189280 -0.02447221 0.04600000
v -0.02887806 -0.02215892 0.04600000
v -0.02015117 -0.01546254 -0.04350000
v -0.02029967 -0.01780234 -0.04600000
v -0.02856991 -0.02505514 0.04200000
v -0.03022396 -0.02650570 0.04200000
v -0.03022396 -0.02650570 0.04600000
v -0.02736697 -0.02400019 0.04600000
v -0.01909673 -0.01674738 -0.04350000
v -0.01909188 -0.01909188 -0.04600000
v -0.02687006 -0.02687006 0.04200000
v -0.02842569 -0.02842569 0.04200000
v -0.02842569 -0.02842569 0.04600000
v -0.02573869 -0.02573869 0.04600000
v -0.01796051 -0.01796051 -0.04350000
v -0.01780234 -0.02029967 -0.04600000
v -0.02505514 -0.02856991 0.04200000
v -0.02650570 -0.03022396 0.04200000
v -0.02650570 -0.03022396 0.04600000
v -0.02400019 -0.02736697 0.04600000
v -0.01674738 -0.01909673 -0.04350000
v -0.01643656 -0.02142054 -0.04600000
v -0.02313293 -0.03014743 0.04200000
v -0.02447221 -0.03189280 0.04200000
v -0.02447221 -0.03189280 0.04600000
v -0.02215892 -0.02887806 0.04600000
v -0.01546254 -0.02015117 -0.04350000
v -0.01500040 -0.02244968 -0.04600000
v -0.02111167 -0.03159585 0.04200000
v -0.02233392 -0.03342508 0.04200000
v -0.02233392 -0.03342508 0.04600000
v -0.02022276 -0.03026549 0.04600000
v -0.01411148 -0.02111933 -0.04350000
v -0.01350000 -0.02338269 -0.04600000
v -0.01900000 -0.03290897 0.04200000
v -0.02010000 -0.03481422 0.04200000
v -0.02010000 -0.03481422 0.04600000
v -0.01820000 -0.03152332 0.04600000
v -0.01270000 -0.02199705 -0.04350000
v -0.01194179 -0.02421556 -0.04600000
v -0.01680697 -0.03408116 0.04200000
v -0.01778001 -0.03605428 0.04200000
v -0.01778001 -0.03605428 0.04600000
v -0.01609931 -0.03264617 0.04600000
v -0.01123413 -0.02278057 -0.04350000
v -0.01033245 -0.02494475 -0.04600000
v -0.01454197 -0.03510742 0.04200000
v -0.01538387 -0.03713996 0.04200000
v -0.01538387 -0.03713996 0.04600000
v -0.01392968 -0.03362921 0.04600000
v -0.00972016 -0.02346654 -0.04350000
v -0.00867887 -0.02556711 -0.04600000
v -0.01221470 -0.03598334 0.04200000
v -0.01292187 -0.03806659 0.04200000
v -0.01292187 -0.03806659 0.04600000
v -0.01170040 -0.03446826 0.04600000
v -0.00816456 -0.02405203 -0.04350000
v -0.00698811 -0.02608000 -0.04600000
v -0.00983512 -0.03670518 0.04200000
v -0.01040453 -0.03883022 0.04200000
v -0.01040453 -0.03883022 0.04600000
v -0.00942101 -0.03515970 0.04600000
v -0.00657400 -0.02453452 -0.04350000
v -0.00526744 -0.02648120 -0.04600000
v -0.00741343 -0.03726984 0.04200000
v -0.00784263 -0.03942757 0.04200000
v -0.00784263 -0.03942757 0.04600000
v -0.00710129 -0.03570058 0.04600000
v -0.00495529 -0.02491195 -0.04350000
v -0.00352421 -0.02676901 -0.04600000
v -0.00496000 -0.03767490 0.04200000
v -0.00524715 -0.03985608 0.04200000
v -0.00524715 -0.03985608 0.04600000
v -0.00475115 -0.03608859 0.04600000
v -0.00331537 -0.02518270 -0.04350000
v -0.00176588 -0.02694219 -0.04600000
v -0.00248532 -0.03791864 0.04200000
v -0.00262921 -0.04011393 0.04200000
v -0.00262921 -0.04011393 0.04600000
v -0.00238067 -0.03632206 0.04600000
v -0.00166124 -0.02534562 -0.04350000
v -0.00000000 -0.02700000 -0.04600000
v -0.00000000 -0.03800000 0.04200000
v -0.00000000 -0.04020000 0.04200000
v -0.00000000 -0.04020000 0.04600000
v -0.00000000 -0.03640000 0.04600000
v -0.00000000 -0.02540000 -0.04350000
v 0.00176588 -0.02694219 -0.04600000
v 0.00248532 -0.03791864 0.04200000
v 0.00262921 -0.04011393 0.04200000
v 0.00262921 -0.04011393 0.04600000
v 0.00238067 -0.03632206 0.04600000
v 0.00166124 -0.02534562 -0.04350000
v 0.00352421 -0.02676901 -0.04600000
v 0.00496000 -0.03767490 0.04200000
v 0.00524715 -0.03985608 0.04200000
v 0.00524715 -0.03985608 0.04600000
v 0.00475115 -0.03608859 0.04600000
v 0.00331537 -0.02518270 -0.04350000
v 0.00526744 -0.02648120 -0.04600000
v 0.00741343 -0.03726984 0.04200000
v 0.00784263 -0.03942757 0.04200000
v 0.00784263 -0.03942757 0.04600000
v 0.00710129 -0.03570058 0.04600000
v 0.00495529 -0.02491195 -0.04350000
v 0.00698811 -0.02608000 -0.04600000
v 0.00983512 -0.03670518 0.04200000
v 0.01040453 -0.03883022 0.04200000
v 0.01040453 -0.03883022 0.04600000
v 0.00942101 -0.03515970 0.04600000
v 0.00657400 -0.02453452 -0.04350000
v 0.00867887 -0.02556711 -0.04600000
v 0.01221470 -0.03598334 0.04200000
v 0.01292187 -0.03806659 0.04200000
v 0.01292187 -0.03806659 0.04600000
v 0.01170040 -0.03446826 0.04600000
v 0.00816456 -0.02405203 -0.04350000
v 0.01033245 -0.02494475 -0.04600000
v 0.01454197 -0.03510742 0.04200000
v 0.01538387 -0.03713996 0.04200000
v 0.01538387 -0.03713996 0.04600000
v 0.01392968 -0.03362921 0.04600000
v 0.00972016 -0.02346654 -0.04350000
v 0.01194179 -0.02421556 -0.04600000
v 0.01680697 -0.03408116 0.04200000
v 0.01778001 -0.03605428 0.04200000
v 0.01778001 -0.03605428 0.04600000
v 0.01609931 -0.03264617 0.04600000
v 0.01123413 -0.02278057 -0.04350000
v 0.01350000 -0.02338269 -0.04600000
v 0.01900000 -0.03290897 0.04200000
v 0.02010000 -0.03481422 0.04200000
v 0.02010000 -0.03481422 0.04600000
v 0.01820000 -0.03152332 0.04600000
v 0.01270000 -0.02199705 -0.04350000
v 0.01500040 -0.02244968 -0.04600000
v 0.02111167 -0.03159585 0.04200000
v 0.02233392 -0.03342508 0.04200000
v 0.02233392 -0.03342508 0.04600000
v 0.02022276 -0.03026549 0.04600000
v 0.01411148 -0.02111933 -0.04350000
v 0.01643656 -0.02142054 -0.04600000
v 0.02313293 -0.03014743 0.04200000
v 0.02447221 -0.03189280 0.04200000
v 0.02447221 -0.03189280 0.04600000
v 0.02215892 -0.02887806 0.04600000
v 0.01546254 -0.02015117 -0.04350000
v 0.01780234 -0.02029967 -0.04600000
v 0.02505514 -0.02856991 0.04200000
v 0.02650570 -0.03022396 0.04200000
v 0.02650570 -0.03022396 0.04600000
v 0.02400019 -0.02736697 0.04600000
v 0.01674738 -0.01909673 -0.04350000
v 0.01909188 -0.01909188 -0.04600000
v 0.02687006 -0.02687006 0.04200000
v 0.02842569 -0.02842569 0.04200000
v 0.02842569 -0.02842569 0.04600000
v 0.02573869 -0.02573869 0.04600000
v 0.01796051 -0.01796051 -0.04350000
v 0.02029967 -0.01780234 -0.04600000
v 0.02856991 -0.02505514 0.04200000
v 0.03022396 -0.02650570 0.04200000
v 0.03022396 -0.02650570 0.04600000
v 0.02736697 -0.02400019 0.04600000
v 0.01909673 -0.01674738 -0.04350000
v 0.02142054 -0.01643656 -0.04600000
v 0.03014743 -0.02313293 0.04200000
v 0.03189280 -0.02447221 0.04200000
v 0.03189280 -0.02447221 0.04600000
v 0.02887806 -0.02215892 0.04600000
v 0.02015117 -0.01546254 -0.04350000
v 0.02244968 -0.01500040 -0.04600000
v 0.03159585 -0.02111167 0.04200000
v 0.03342508 -0.02233392 0.04200000
v 0.03342508 -0.02233392 0.04600000
v 0.03026549 -0.02022276 0.04600000
v 0.02111933 -0.01411148 -0.04350000
v 0.02338269 -0.01350000 -0.04600000
v 0.03290897 -0.01900000 0.04200000
v 0.03481422 -0.02010000 0.04200000
v 0.03481422 -0.02010000 0.04600000
v 0.03152332 -0.01820000 0.04600000
v 0.02199705 -0.01270000 -0.04350000
v 0.02421556 -0.01194179 -0.04600000
v 0.03408116 -0.01680697 0.04200000
v 0.03605428 -0.01778001 0.04200000
v 0.03605428 -0.01778001 0.04600000
v 0.03264617 -0.01609931 0.04600000
v 0.02278057 -0.01123413 -0.04350000
v 0.02494475 -0.01033245 -0.04600000
v 0.03510742 -0.01454197 0.04200000
v 0.03713996 -0.01538387 0.04200000
v 0.03713996 -0.01538387 0.04600000
v 0.03362921 -0.01392968 0.04600000
v 0.02346654 -0.00972016 -0.04350000
v 0.02556711 -0.00867887 -0.04600000
v 0.03598334 -0.01221470 0.04200000
v 0.03806659 -0.01292187 0.04200000
v 0.03806659 -0.01292187 0.04600000
v 0.03446826 -0.01170040 0.04600000
v 0.02405203 -0.00816456 -0.04350000
v 0.02608000 -0.00698811 -0.04600000
v 0.03670518 -0.00983512 0.04200000
v 0.03883022 -0.01040453 0.04200000
v 0.03883022 -0.01040453 0.04600000
v 0.03515970 -0.00942101 0.04600000
v 0.02453452 -0.00657400 -0.04350000
v 0.02648120 -0.00526744 -0.04600000
v 0.03726984 -0.00741343 0.04200000
v 0.03942757 -0.00784263 0.04200000
v 0.03942757 -0.00784263 0.04600000
v 0.03570058 -0.00710129 0.04600000
v 0.02491195 -0.00495529 -0.04350000
v 0.02676901 -0.00352421 -0.04600000
v 0.03767490 -0.00496000 0.04200000
v 0.03985608 -0.00524715 0.04200000
v 0.03985608 -0.00524715 0.04600000
v 0.03608859 -0.00475115 0.04600000
v 0.02518270 -0.00331537 -0.04350000
v 0.02694219 -0.00176588 -0.04600000
v 0.03791864 -0.00248532 0.04200000
v 0.04011393 -0.00262921 0.04200000
v 0.04011393 -0.00262921 0.04600000
v 0.03632206 -0.00238067 0.04600000
v 0.02534562 -0.00166124 -0.04350000
f 2 1 9
f 2 9 3
f 3 9 10
f 3 10 4
f 4 10 11
f 4 11 5
f 5 11 12
f 5 12 6
f 6 12 13
f 6 13 7
f 7 13 14
f 7 14 8
f 9 1 15
f 9 15 10
f 10 15 16
f 10 16 11
f 11 16 17
f 11 17 12
f 12 17 18
f 12 18 13
f 13 18 19
f 13 19 14
f 14 19 20
f 14 20 8
f 15 1 21
f 15 21 16
f 16 21 22
f 16 22 17
f 17 22 23
f 17 23 18
f 18 23 24
f 18 24 19
f 19 24 25
f 19 25 20
f 20 25 26
f 20 26 8
f 21 1 27
f 21 27 22
f 22 27 28
f 22 28 23
f 23 28 29
f 23 29 24
f 24 29 30
f 24 30 25
f 25 30 31
f 25 31 26
f 26 31 32
f 26 32 8
f 27 1 33
f 27 33 28
f 28 33 34
f 28 34 29
f 29 34 35
f 29 35 30
f 30 35 36
f 30 36 31
f 31 36 37
f 31 37 32
f 32 37 38
f 32 38 8
f 33 1 39
f 33 39 34
f 34 39 40
f 34 40 35
f 35 40 41
f 35 41 36
f 36 41 42
f 36 42 37
f 37 42 43
f 37 43 38
f 38 43 44
f 38 44 8
f 39 1 45
f 39 45 40
f 40 45 46
f 40 46 41
f 41 46 47
f 41 47 42
f 42 47 48
f 42 48 43
f 43 48 49
f 43 49 44
f 44 49 50
f 44 50 8
f 45 1 51
f 45 51 46
f 46 51 52
f 46 52 47
f 47 52 53
f 47 53 48
f 48 53 54
f 48 54 49
f 49 54 55
f 49 55 50
f 50 55 56
f 50 56 8
f 51 1 57
f 51 57 52
f 52 57 58
f 52 58 53
f 53 58 59
f 53 59 54
f 54 59 60
f 54 60 55
f 55 60 61
f 55 61 56
f 56 61 62
f 56 62 8
f 57 1 63
f 57 63 58
f 58 63 64
f 58 64 59
f 59 64 65
f 59 65 60
f 60 65 66
f 60 66 61
f 61 66 67
f 61 67 62
f 62 67 68
f 62 68 8
f 63 1 69
f 63 69 64
f 64 69 70
f 64 70 65
f 65 70 71
f 65 71 66
f 66 71 72
f 66 72 67
f 67 72 73
f 67 73 68
f 68 73 74
f 68 74 8
f 69 1 75
f 69 75 70
f 70 75 76
f 70 76 71
f 71 76 77
f 71 77 72
f 72 77 78
f 72 78 73
f 73 78 79
f 73 79 74
f 74 79 80
f 74 80 8
f 75 1 81
f 75 81 76
f 76 81 82
f 76 82 77
f 77 82 83
f 77 83 78
f 78 83 84
f 78 84 79
f 79 84 85
f 79 85 80
f 80 85 86
f 80 86 8
f 81 1 87
f 81 87 82
f 82 87 88
f 82 88 83
f 83 88 89
f 83 89 84
f 84 89 90
f 84 90 85
f 85 90 91
f 85 91 86
f 86 91 92
f 86 92 8
f 87 1 93
f 87 93 88
f 88 93 94
f 88 94 89
f 89 94 95
f 89 95 90
f 90 95 96
f 90 96 91
f 91 96 97
f 91 97 92
f 92 97 98
f 92 98 8
f 93 1 99
f 93 99 94
f 94 99 100
f 94 100 95
f 95 100 101
f 95 101 96
f 96 101 102
f 96 102 97
f 97 102 103
f 97 103 98
f 98 103 104
f 98 104 8
f 99 1 105
f 99 105 100
f 100 105 106
f 100 106 101
f 101 106 107
f 101 107 102
f 102 107 108
f 102 108 103
f 103 108 109
f 103 109 104
f 104 109 110
f 104 110 8
f 105 1 111
f 105 111 106
f 106 111 112
f 106 112 107
f 107 112 113
f 107 113 108
f 108 113 114
f 108 114 109
f 109 114 115
f 109 115 110
f 110 115 116
f 110 116 8
f 111 1 117
f 111 117 112
f 112 117 118
f 112 118 113
f 113 118 119
f 113 119 114
f 114 119 120
f 114 120 115
f 115 120 121
f 115 121 116
f 116 121 122
f 116 122 8
f 117 1 123
f 117 123 118
f 118 123 124
f 118 124 119
f 119 124 125
f 119 125 120
f 120 125 126
f 120 126 121
f 121 126 127
f 121 127 122
f 122 127 128
f 122 128 8
f 123 1 129
f 123 129 124
f 124 129 130
f 124 130 125
f 125 130 131
f 125 131 126
f 126 131 132
f 126 132 127
f 127 132 133
f 127 133 128
f 128 133 134
f 128 134 8
f 129 1 135
f 129 135 130
f 130 135 136
f 130 136 131
f 131 136 137
f 131 137 132
f 132 137 138
f 132 138 133
f 133 138 139
f 133 139 134
f 134 139 140
f 134 140 8
f 135 1 141
f 135 141 136
f 136 141 142
f 136 142 137
f 137 142 143
f 137 143 138
f 138 143 144
f 138 144 139
f 139 144 145
f 139 145 140
f 140 145 146
f 140 146 8
f 141 1 147
f 141 147 142
f 142 147 148
f 142 148 143
f 143 148 149
f 143 149 144
f 144 149 150
f 144 150 145
f 145 150 151
f 145 151 146
f 146 151 152
f 146 152 8
f 147 1 153
f 147 153 148
f 148 153 154
f 148 154 149
f 149 154 155
f 149 155 150
f 150 155 156
f 150 156 151
f 151 156 157
f 151 157 152
f 152 157 158
f 152 158 8
f 153 1 159
f 153 159 154
f 154 159 160
f 154 160 155
f 155 160 161
f 155 161 156
f 156 161 162
f 156 162 157
f 157 162 163
f 157 163 158
f 158 163 164
f 158 164 8
f 159 1 165
f 159 165 160
f 160 165 166
f 160 166 161
f 161 166 167
f 161 167 162
f 162 167 168
f 162 168 163
f 163 168 169
f 163 169 164
f 164 169 170
f 164 170 8
f 165 1 171
f 165 171 166
f 166 171 172
f 166 172 167
f 167 172 173
f 167 173 168
f 168 173 174
f 168 174 169
f 169 174 175
f 169 175 170
f 170 175 176
f 170 176 8
f 171 1 177
f 171 177 172
f 172 177 178
f 172 178 173
f 173 178 179
f 173 179 174
f 174 179 180
f 174 180 175
f 175 180 181
f 175 181 176
f 176 181 182
f 176 182 8
f 177 1 183
f 177 183 178
f 178 183 184
f 178 184 179
f 179 184 185
f 179 185 180
f 180 185 186
f 180 186 181
f 181 186 187
f 181 187 182
f 182 187 188
f 182 188 8
f 183 1 189
f 183 189 184
f 184 189 190
f 184 190 185
f 185 190 191
f 185 191 186
f 186 191 192
f 186 192 187
f 187 192 193
f 187 193 188
f 188 193 194
f 188 194 8
f 189 1 195
f 189 195 190
f 190 195 196
f 190 196 191
f 191 196 197
f 191 197 192
f 192 197 198
f 192 198 193
f 193 198 199
f 193 199 194
f 194 199 200
f 194 200 8
f 195 1 201
f 195 201 196
f 196 201 202
f 196 202 197
f 197 202 203
f 197 203 198
f 198 203 204
f 198 204 199
f 199 204 205
f 199 205 200
f 200 205 206
f 200 206 8
f 201 1 207
f 201 207 202
f 202 207 208
f 202 208 203
f 203 208 209
f 203 209 204
f 204 209 210
f 204 210 205
f 205 210 211
f 205 211 206
f 206 211 212
f 206 212 8
f 207 1 213
f 207 213 208
f 208 213 214
f 208 214 209
f 209 214 215
f 209 215 210
f 210 215 216
f 210 216 211
f 211 216 217
f 211 217 212
f 212 217 218
f 212 218 8
f 213 1 219
f 213 219 214
f 214 219 220
f 214 220 215
f 215 220 221
f 215 221 216
f 216 221 222
f 216 222 217
f 217 222 223
f 217 223 218
f 218 223 224
f 218 224 8
f 219 1 225
f 219 225 220
f 220 225 226
f 220 226 221
f 221 226 227
f 221 227 222
f 222 227 228
f 222 228 223
f 223 228 229
f 223 229 224
f 224 229 230
f 224 230 8
f 225 1 231
f 225 231 226
f 226 231 232
f 226 232 227
f 227 232 233
f 227 233 228
f 228 233 234
f 228 234 229
f 229 234 235
f 229 235 230
f 230 235 236
f 230 236 8
f 231 1 237
f 231 237 232
f 232 237 238
f 232 238 233
f 233 238 239
f 233 239 234
f 234 239 240
f 234 240 235
f 235 240 241
f 235 241 236
f 236 241 242
f 236 242 8
f 237 1 243
f 237 243 238
f 238 243 244
f 238 244 239
f 239 244 245
f 239 245 240
f 240 245 246
f 240 246 241
f 241 246 247
f 241 247 242
f 242 247 248
f 242 248 8
f 243 1 249
f 243 249 244
f 244 249 250
f 244 250 245
f 245 250 251
f 245 251 246
f 246 251 252
f 246 252 247
f 247 252 253
f 247 253 248
f 248 253 254
f 248 254 8
f 249 1 255
f 249 255 250
f 250 255 256
f 250 256 251
f 251 256 257
f 251 257 252
f 252 257 258
f 252 258 253
f 253 258 259
f 253 259 254
f 254 259 260
f 254 260 8
f 255 1 261
f 255 261 256
f 256 261 262
f 256 262 257
f 257 262 263
f 257 263 258
f 258 263 264
f 258 264 259
f 259 264 265
f 259 265 260
f 260 265 266
f 260 266 8
f 261 1 267
f 261 267 262
f 262 267 268
f 262 268 263
f 263 268 269
f 263 269 264
f 264 269 270
f 264 270 265
f 265 270 271
f 265 271 266
f 266 271 272
f 266 272 8
f 267 1 273
f 267 273 268
f 268 273 274
f 268 274 269
f 269 274 275
f 269 275 270
f 270 275 276
f 270 276 271
f 271 276 277
f 271 277 272
f 272 277 278
f 272 278 8
f 273 1 279
f 273 279 274
f 274 279 280
f 274 280 275
f 275 280 281
f 275 281 276
f 276 281 282
f 276 282 277
f 277 282 283
f 277 283 278
f 278 283 284
f 278 284 8
f 279 1 285
f 279 285 280
f 280 285 286
f 280 286 281
f 281 286 287
f 281 287 282
f 282 287 288
f 282 288 283
f 283 288 289
f 283 289 284
f 284 289 290
f 284 290 8
f 285 1 291
f 285 291 286
f 286 291 292
f 286 292 287
f 287 292 293
f 287 293 288
f 288 293 294
f 288 294 289
f 289 294 295
f 289 295 290
f 290 295 296
f 290 296 8
f 291 1 297
f 291 297 292
f 292 297 298
f 292 298 293
f 293 298 299
f 293 299 294
f 294 299 300
f 294 300 295
f 295 300 301
f 295 301 296
f 296 301 302
f 296 302 8
f 297 1 303
f 297 303 298
f 298 303 304
f 298 304 299
f 299 304 305
f 299 305 300
f 300 305 306
f 300 306 301
f 301 306 307
f 301 307 302
f 302 307 308
f 302 308 8
f 303 1 309
f 303 309 304
f 304 309 310
f 304 310 305
f 305 310 311
f 305 311 306
f 306 311 312
f 306 312 307
f 307 312 313
f 307 313 308
f 308 313 314
f 308 314 8
f 309 1 315
f 309 315 310
f 310 315 316
f 310 316 311
f 311 316 317
f 311 317 312
f 312 317 318
f 312 318 313
f 313 318 319
f 313 319 314
f 314 319 320
f 314 320 8
f 315 1 321
f 315 321 316
f 316 321 322
f 316 322 317
f 317 322 323
f 317 323 318
f 318 323 324
f 318 324 319
f 319 324 325
f 319 325 320
f 320 325 326
f 320 326 8
f 321 1 327
f 321 327 322
f 322 327 328
f 322 328 323
f 323 328 329
f 323 329 324
f 324 329 330
f 324 330 325
f 325 330 331
f 325 331 326
f 326 331 332
f 326 332 8
f 327 1 333
f 327 333 328
f 328 333 334
f 328 334 329
f 329 334 335
f 329 335 330
f 330 335 336
f 330 336 331
f 331 336 337
f 331 337 332
f 332 337 338
f 332 338 8
f 333 1 339
f 333 339 334
f 334 339 340
f 334 340 335
f 335 340 341
f 335 341 336
f 336 341 342
f 336 342 337
f 337 342 343
f 337 343 338
f 338 343 344
f 338 344 8
f 339 1 345
f 339 345 340
f 340 345 346
f 340 346 341
f 341 346 347
f 341 347 342
f 342 347 348
f 342 348 343
f 343 348 349
f 343 349 344
f 344 349 350
f 344 350 8
f 345 1 351
f 345 351 346
f 346 351 352
f 346 352 347
f 347 352 353
f 347 353 348
f 348 353 354
f 348 354 349
f 349 354 355
f 349 355 350
f 350 355 356
f 350 356 8
f 351 1 357
f 351 357 352
f 352 357 358
f 352 358 353
f 353 358 359
f 353 359 354
f 354 359 360
f 354 360 355
f 355 360 361
f 355 361 356
f 356 361 362
f 356 362 8
f 357 1 363
f 357 363 358
f 358 363 364
f 358 364 359
f 359 364 365
f 359 365 360
f 360 365 366
f 360 366 361
f 361 366 367
f 361 367 362
f 362 367 368
f 362 368 8
f 363 1 369
f 363 369 364
f 364 369 370
f 364 370 365
f 365 370 371
f 365 371 366
f 366 371 372
f 366 372 367
f 367 372 373
f 367 373 368
f 368 373 374
f 368 374 8
f 369 1 375
f 369 375 370
f 370 375 376
f 370 376 371
f 371 376 377
f 371 377 372
f 372 377 378
f 372 378 373
f 373 378 379
f 373 379 374
f 374 379 380
f 374 380 8
f 375 1 381
f 375 381 376
f 376 381 382
f 376 382 377
f 377 382 383
f 377 383 378
f 378 383 384
f 378 384 379
f 379 384 385
f 379 385 380
f 380 385 386
f 380 386 8
f 381 1 387
f 381 387 382
f 382 387 388
f 382 388 383
f 383 388 389
f 383 389 384
f 384 389 390
f 384 390 385
f 385 390 391
f 385 391 386
f 386 391 392
f 386 392 8
f 387 1 393
f 387 393 388
f 388 393 394
f 388 394 389
f 389 394 395
f 389 395 390
f 390 395 396
f 390 396 391
f 391 396 397
f 391 397 392
f 392 397 398
f 392 398 8
f 393 1 399
f 393 399 394
f 394 399 400
f 394 400 395
f 395 400 401
f 395 401 396
f 396 401 402
f 396 402 397
f 397 402 403
f 397 403 398
f 398 403 404
f 398 404 8
f 399 1 405
f 399 405 400
f 400 405 406
f 400 406 401
f 401 406 407
f 401 407 402
f 402 407 408
f 402 408 403
f 403 408 409
f 403 409 404
f 404 409 410
f 404 410 8
f 405 1 411
f 405 411 406
f 406 411 412
f 406 412 407
f 407 412 413
f 407 413 408
f 408 413 414
f 408 414 409
f 409 414 415
f 409 415 410
f 410 415 416
f 410 416 8
f 411 1 417
f 411 417 412
f 412 417 418
f 412 418 413
f 413 418 419
f 413 419 414
f 414 419 420
f 414 420 415
f 415 420 421
f 415 421 416
f 416 421 422
f 416 422 8
f 417 1 423
f 417 423 418
f 418 423 424
f 418 424 419
f 419 424 425
f 419 425 420
f 420 425 426
f 420 426 421
f 421 426 427
f 421 427 422
f 422 427 428
f 422 428 8
f 423 1 429
f 423 429 424
f 424 429 430
f 424 430 425
f 425 430 431
f 425 431 426
f 426 431 432
f 426 432 427
f 427 432 433
f 427 433 428
f 428 433 434
f 428 434 8
f 429 1 435
f 429 435 430
f 430 435 436
f 430 436 431
f 431 436 437
f 431 437 432
f 432 437 438
f 432 438 433
f 433 438 439
f 433 439 434
f 434 439 440
f 434 440 8
f 435 1 441
f 435 441 436
f 436 441 442
f 436 442 437
f 437 442 443
f 437 443 438
f 438 443 444
f 438 444 439
f 439 444 445
f 439 445 440
f 440 445 446
f 440 446 8
f 441 1 447
f 441 447 442
f 442 447 448
f 442 448 443
f 443 448 449
f 443 449 444
f 444 449 450
f 444 450 445
f 445 450 451
f 445 451 446
f 446 451 452
f 446 452 8
f 447 1 453
f 447 453 448
f 448 453 454
f 448 454 449
f 449 454 455
f 449 455 450
f 450 455 456
f 450 456 451
f 451 456 457
f 451 457 452
f 452 457 458
f 452 458 8
f 453 1 459
f 453 459 454
f 454 459 460
f 454 460 455
f 455 460 461
f 455 461 456
f 456 461 462
f 456 462 457
f 457 462 463
f 457 463 458
f 458 463 464
f 458 464 8
f 459 1 465
f 459 465 460
f 460 465 466
f 460 466 461
f 461 466 467
f 461 467 462
f 462 467 468
f 462 468 463
f 463 468 469
f 463 469 464
f 464 469 470
f 464 470 8
f 465 1 471
f 465 471 466
f 466 471 472
f 466 472 467
f 467 472 473
f 467 473 468
f 468 473 474
f 468 474 469
f 469 474 475
f 469 475 470
f 470 475 476
f 470 476 8
f 471 1 477
f 471 477 472
f 472 477 478
f 472 478 473
f 473 478 479
f 473 479 474
f 474 479 480
f 474 480 475
f 475 480 481
f 475 481 476
f 476 481 482
f 476 482 8
f 477 1 483
f 477 483 478
f 478 483 484
f 478 484 479
f 479 484 485
f 479 485 480
f 480 485 486
f 480 486 481
f 481 486 487
f 481 487 482
f 482 487 488
f 482 488 8
f 483 1 489
f 483 489 484
f 484 489 490
f 484 490 485
f 485 490 491
f 485 491 486
f 486 491 492
f 486 492 487
f 487 492 493
f 487 493 488
f 488 493 494
f 488 494 8
f 489 1 495
f 489 495 490
f 490 495 496
f 490 496 491
f 491 496 497
f 491 497 492
f 492 497 498
f 492 498 493
f 493 498 499
f 493 499 494
f 494 499 500
f 494 500 8
f 495 1 501
f 495 501 496
f 496 501 502
f 496 502 497
f 497 502 503
f 497 503 498
f 498 503 504
f 498 504 499
f 499 504 505
f 499 505 500
f 500 505 506
f 500 506 8
f 501 1 507
f 501 507 502
f 502 507 508
f 502 508 503
f 503 508 509
f 503 509 504
f 504 509 510
f 504 510 505
f 505 510 511
f 505 511 506
f 506 511 512
f 506 512 8
f 507 1 513
f 507 513 508
f 508 513 514
f 508 514 509
f 509 514 515
f 509 515 510
f 510 515 516
f 510 516 511
f 511 516 517
f 511 517 512
f 512 517 518
f 512 518 8
f 513 1 519
f 513 519 514
f 514 519 520
f 514 520 515
f 515 520 521
f 515 521 516
f 516 521 522
f 516 522 517
f 517 522 523
f 517 523 518
f 518 523 524
f 518 524 8
f 519 1 525
f 519 525 520
f 520 525 526
f 520 526 521
f 521 526 527
f 521 527 522
f 522 527 528
f 522 528 523
f 523 528 529
f 523 529 524
f 524 529 530
f 524 530 8
f 525 1 531
f 525 531 526
f 526 531 532
f 526 532 527
f 527 532 533
f 527 533 528
f 528 533 534
f 528 534 529
f 529 534 535
f 529 535 530
f 530 535 536
f 530 536 8
f 531 1 537
f 531 537 532
f 532 537 538
f 532 538 533
f 533 538 539
f 533 539 534
f 534 539 540
f 534 540 535
f 535 540 541
f 535 541 536
f 536 541 542
f 536 542 8
f 537 1 543
f 537 543 538
f 538 543 544
f 538 544 539
f 539 544 545
f 539 545 540
f 540 545 546
f 540 546 541
f 541 546 547
f 541 547 542
f 542 547 548
f 542 548 8
f 543 1 549
f 543 549 544
f 544 549 550
f 544 550 545
f 545 550 551
f 545 551 546
f 546 551 552
f 546 552 547
f 547 552 553
f 547 553 548
f 548 553 554
f 548 554 8
f 549 1 555
f 549 555 550
f 550 555 556
f 550 556 551
f 551 556 557
f 551 557 552
f 552 557 558
f 552 558 553
f 553 558 559
f 553 559 554
f 554 559 560
f 554 560 8
f 555 1 561
f 555 561 556
f 556 561 562
f 556 562 557
f 557 562 563
f 557 563 558
f 558 563 564
f 558 564 559
f 559 564 565
f 559 565 560
f 560 565 566
f 560 566 8
f 561 1 567
f 561 567 562
f 562 567 568
f 562 568 563
f 563 568 569
f 563 569 564
f 564 569 570
f 564 570 565
f 565 570 571
f 565 571 566
f 566 571 572
f 566 572 8
f 567 1 573
f 567 573 568
f 568 573 574
f 568 574 569
f 569 574 575
f 569 575 570
f 570 575 576
f 570 576 571
f 571 576 577
f 571 577 572
f 572 577 578
f 572 578 8
f 573 1 2
f 573 2 574
f 574 2 3
f 574 3 575
f 575 3 4
f 575 4 576
f 576 4 5
f 576 5 577
f 577 5 6
f 577 6 578
f 578 6 7
f 578 7 8

